<?xml version="1.0" standalone="no"?>
<!DOCTYPE svg PUBLIC "-//W3C//DTD SVG 20010904//EN"
 "http://www.w3.org/TR/2001/REC-SVG-20010904/DTD/svg10.dtd">
<svg version="1.0" xmlns="http://www.w3.org/2000/svg"
 width="512.000000pt" height="512.000000pt" viewBox="0 0 512.000000 512.000000"
 preserveAspectRatio="xMidYMid meet">
<metadata>
Created by potrace 1.11, written by Peter Selinger 2001-2013
</metadata>
<g transform="translate(0.000000,512.000000) scale(0.100000,-0.100000)"
fill="#000000" stroke="none">
<path d="M2409 4668 c-309 -78 -468 -426 -327 -717 38 -77 141 -186 205 -216
l43 -20 0 -70 c1 -79 1 -322 0 -376 0 -35 -2 -38 -57 -59 -32 -13 -91 -44
-130 -71 -70 -45 -74 -46 -96 -30 -12 9 -30 21 -39 26 -10 6 -76 48 -148 95
-71 47 -155 101 -185 120 -30 19 -125 80 -210 135 l-154 100 0 76 c0 92 -14
155 -53 234 -84 169 -245 271 -438 279 -229 10 -442 -145 -506 -369 -48 -169
7 -376 133 -496 104 -99 193 -138 328 -144 102 -5 172 8 257 49 l57 27 128
-84 c70 -46 216 -140 323 -209 107 -69 213 -137 235 -151 83 -54 78 -47 65
-97 -7 -25 -13 -83 -14 -130 -2 -75 1 -103 18 -195 8 -41 50 -141 82 -193 l33
-55 -97 -126 c-53 -69 -128 -167 -167 -217 -38 -51 -126 -166 -195 -255 -68
-90 -130 -170 -137 -177 -7 -7 -16 -20 -21 -28 -6 -11 -17 -12 -53 -6 -110 21
-253 -10 -356 -78 -151 -99 -236 -267 -227 -447 11 -238 179 -430 419 -479 41
-8 152 -5 200 6 87 19 175 70 245 140 156 157 190 368 96 591 -6 13 9 39 62
104 4 6 35 46 67 90 33 44 68 89 77 100 9 11 105 136 213 278 154 202 200 257
213 252 10 -4 55 -15 101 -24 89 -19 200 -19 284 -1 68 14 71 14 92 -22 10
-18 94 -146 186 -284 l167 -251 -19 -34 c-48 -90 -60 -138 -60 -244 -1 -323
316 -570 626 -489 386 100 519 570 240 849 -102 103 -227 153 -372 151 l-81
-2 -58 90 c-33 49 -66 99 -74 112 -8 13 -66 99 -129 191 -111 163 -113 168
-99 193 9 14 31 51 51 84 20 32 45 86 56 120 18 53 23 76 35 143 3 16 13 26
29 29 7 1 32 5 57 9 24 4 47 8 50 10 3 2 21 6 40 9 19 3 78 14 130 25 l95 20
45 -48 c174 -182 440 -218 646 -86 237 152 307 467 156 701 -152 235 -457 306
-694 161 -94 -57 -196 -190 -220 -288 -6 -21 -16 -39 -22 -40 -18 -1 -336 -66
-367 -75 -12 -3 -29 14 -59 58 -80 119 -211 224 -342 273 l-48 18 0 237 0 237
59 36 c206 127 297 380 217 603 -27 75 -61 129 -121 189 -128 129 -308 179
-486 133z"/>
</g>
</svg>
